<svg width="880" height="880" viewBox="0 0 880 880" fill="none" xmlns="http://www.w3.org/2000/svg">
<path d="M518.483 177.535C518.483 216.442 484.063 249.07 440.207 249.07C396.351 249.07 361.931 216.442 361.931 177.535C361.931 138.628 396.351 106 440.207 106C484.063 106 518.483 138.628 518.483 177.535Z" stroke="#616161" stroke-width="16"/>
<path d="M440.782 268.735H355.657L301.016 277.219L227.394 291.005L170.452 321.228L143.994 339.786L126.164 354.633M172.178 405.005L200.361 386.977L227.394 371.6L261.329 363.647H301.016L313.67 380.084L318.271 395.991V467.042L313.67 555.06V656.865V782H355.657H378.089L403.396 758.67L415.475 709.358L426.978 645.73L440.782 605.963" stroke="#616161" stroke-width="16"/>
<path d="M440.207 268.735H525.332L579.973 277.219L653.595 291.005L710.537 321.228L736.995 339.786L754.825 354.633M708.812 405.005L680.628 386.977L653.595 371.6L619.66 363.646H579.973L567.32 380.084L562.718 395.991V467.042L567.32 555.06V656.865V782H525.332H502.901L477.593 758.67L465.514 709.358L454.011 645.73L440.207 605.963" stroke="#616161" stroke-width="16"/>
<path d="M173.903 403.944C168.208 407.813 156.477 411.814 146.295 410.837C136.938 409.939 128.008 404.481 121.563 398.642C116.229 391.149 114.331 383.454 114.883 376.372C115.435 369.29 120.198 359.442 126.739 354.102" stroke="#616161" stroke-width="16"/>
<path d="M707.086 403.944C712.781 407.813 724.512 411.814 734.694 410.837C744.051 409.939 752.982 404.481 759.427 398.642C764.76 391.149 766.658 383.454 766.106 376.372C765.554 369.29 760.791 359.442 754.25 354.102" stroke="#616161" stroke-width="16"/>
<path d="M352.843 396.112V385.961C352.843 378.666 354.425 372.03 357.589 366.054C360.753 360.077 365.279 355.287 371.168 351.684C377.057 348.08 384.044 346.278 392.13 346.278C400.392 346.278 407.423 348.08 413.224 351.684C419.112 355.287 423.639 360.077 426.803 366.054C429.967 372.03 431.549 378.666 431.549 385.961V396.112C431.549 403.231 429.967 409.779 426.803 415.756C423.727 421.732 419.244 426.522 413.355 430.126C407.555 433.729 400.567 435.531 392.394 435.531C384.22 435.531 377.145 433.729 371.168 430.126C365.279 426.522 360.753 421.732 357.589 415.756C354.425 409.779 352.843 403.231 352.843 396.112ZM371.168 385.961V396.112C371.168 400.155 371.915 403.979 373.409 407.582C374.991 411.186 377.364 414.13 380.528 416.415C383.692 418.612 387.647 419.711 392.394 419.711C397.14 419.711 401.051 418.612 404.127 416.415C407.203 414.13 409.488 411.186 410.982 407.582C412.477 403.979 413.224 400.155 413.224 396.112V385.961C413.224 381.83 412.433 377.963 410.851 374.359C409.356 370.668 407.027 367.724 403.863 365.526C400.787 363.241 396.876 362.099 392.13 362.099C387.472 362.099 383.561 363.241 380.396 365.526C377.32 367.724 374.991 370.668 373.409 374.359C371.915 377.963 371.168 381.83 371.168 385.961ZM446.314 504.218V493.935C446.314 486.728 447.896 480.136 451.061 474.159C454.225 468.183 458.751 463.393 464.64 459.789C470.528 456.186 477.516 454.384 485.602 454.384C493.863 454.384 500.895 456.186 506.695 459.789C512.584 463.393 517.11 468.183 520.274 474.159C523.438 480.136 525.021 486.728 525.021 493.935V504.218C525.021 511.425 523.438 518.017 520.274 523.993C517.198 529.97 512.716 534.76 506.827 538.363C501.026 541.967 494.039 543.769 485.865 543.769C477.691 543.769 470.66 541.967 464.771 538.363C458.883 534.76 454.312 529.97 451.061 523.993C447.896 518.017 446.314 511.425 446.314 504.218ZM464.64 493.935V504.218C464.64 508.261 465.387 512.128 466.881 515.819C468.463 519.423 470.836 522.367 474 524.652C477.164 526.85 481.119 527.948 485.865 527.948C490.611 527.948 494.522 526.85 497.599 524.652C500.763 522.367 503.092 519.423 504.586 515.819C506.08 512.216 506.827 508.349 506.827 504.218V493.935C506.827 489.804 506.036 485.937 504.454 482.333C502.96 478.729 500.631 475.829 497.467 473.632C494.391 471.347 490.436 470.204 485.602 470.204C480.943 470.204 477.032 471.347 473.868 473.632C470.792 475.829 468.463 478.729 466.881 482.333C465.387 485.937 464.64 489.804 464.64 493.935ZM491.666 376.337L397.931 526.366L384.22 517.665L477.955 367.636L491.666 376.337Z" fill="#616161"/>
<circle cx="440" cy="440" r="432" stroke="#616161" stroke-width="16"/>
</svg>
